<svg version="1.1" xmlns="http://www.w3.org/2000/svg" viewBox="-262.2 -2953.8999999999996 5850.4 3274.6"><desc>Created with Snap</desc><defs></defs><g><g transform="matrix(38.3647,0,0,38.3647,1435.3305,-3051.0277)"><g><path d="M59,45.15V43.11a9,9,0,0,0-6.512-8.681l-4.9-1.362c-.1-.054-.2-.116-.306-.17-.616-.325-1.225-.665-1.818-1.03-.176-.108-.343-.227-.517-.338-.53-.34-1.054-.69-1.563-1.061-.155-.113-.3-.232-.458-.347-.516-.392-1.024-.795-1.516-1.217-.134-.115-.267-.233-.4-.35q-.736-.651-1.431-1.347c-.129-.129-.258-.258-.385-.389-.439-.455-.861-.925-1.273-1.405-.139-.162-.281-.321-.416-.485-.366-.444-.713-.9-1.054-1.366-.16-.217-.327-.428-.482-.649-.277-.4-.533-.808-.792-1.217-.188-.3-.386-.583-.565-.886-.41-.7-.8-1.4-1.155-2.131l-.057-.117a1,1,0,0,0-1.613-.262,5.513,5.513,0,0,1-7.145.591l-.47-.342A3.542,3.542,0,0,1,22.728,15.7a5.38,5.38,0,0,0-2.949-4.813,3.179,3.179,0,0,0-3.853.757A39.347,39.347,0,0,0,12.657,16H6v2h5.433c-.6,1.059-1.14,2.151-1.642,3.261,0,.006-.008.012-.011.018-.014.031-.025.062-.039.093-.094.209-.193.417-.283.628H6v2H8.671c-.165.451-.327.9-.476,1.361-.071.218-.132.438-.2.657-.154.5-.31,1-.444,1.51-.09.341-.161.683-.242,1.025a3.795,3.795,0,0,0-4.74,1.541,4.032,4.032,0,0,0,1.211,5.381L15.3,42H10v2h8.836L25.9,48H21v2h8.431l1.86,1.053A15.021,15.021,0,0,0,38.682,53H58a3.987,3.987,0,0,0,1-7.85ZM43.509,33H40.7a1,1,0,0,1-.625-.219l-7.891-6.312a1,1,0,0,1-.156-1.407l1.616-2.018c.392.607.808,1.2,1.236,1.774.079.107.16.211.241.317q.705.931,1.469,1.812l.016.019a33.924,33.924,0,0,0,5.72,5.212l.033.023C42.74,32.473,43.119,32.743,43.509,33ZM17.443,12.944a1.176,1.176,0,0,1,1.428-.278A3.389,3.389,0,0,1,20.728,15.7,5.547,5.547,0,0,0,23,20.165l.469.342a7.532,7.532,0,0,0,8.719.069c.115.215.249.418.368.63l-2.086,2.607a3,3,0,0,0,.468,4.217l7.89,6.312A3.007,3.007,0,0,0,40.7,35h6.376l4.874,1.355A6.992,6.992,0,0,1,57,43.11V45H39.061A6.969,6.969,0,0,1,38,44.91V43.794a6.04,6.04,0,0,0-2.855-5.11L26.9,33.613A4.027,4.027,0,0,1,25,30.206V27a1,1,0,0,0-2,0v3.206a6.04,6.04,0,0,0,2.855,5.11L34.1,40.387A4.027,4.027,0,0,1,36,43.794v.486c-.107-.051-.217-.094-.321-.151L20,35.479V31.434A8.949,8.949,0,0,0,15.77,23.8l-3.843-2.4A37.612,37.612,0,0,1,17.443,12.944ZM18,34.3c-1.933-1.073-5.463-3.029-8.853-4.883v0c.135-.608.294-1.21.459-1.809q.137-.491.287-.978c.075-.247.156-.491.236-.736q.315-.951.683-1.891L11,23.521c.037-.092.069-.184.107-.275l3.6,2.252A6.96,6.96,0,0,1,18,31.434ZM58,51H38.682a13.011,13.011,0,0,1-6.406-1.688L30,48.024V48h-.043L4.85,33.787a2.007,2.007,0,0,1-.565-2.664,1.8,1.8,0,0,1,2.592-.535.849.849,0,0,0,.1.065L34.72,45.889A9.025,9.025,0,0,0,39.052,47H57.976A2.029,2.029,0,0,1,60,49,2,2,0,0,1,58,51Z" style="" fill="#165a3f"></path><rect x="2" y="42" width="2" height="2" style="" fill="#165a3f"></rect><rect x="6" y="42" width="2" height="2" style="" fill="#165a3f"></rect><rect x="13" y="48" width="2" height="2" style="" fill="#165a3f"></rect><rect x="17" y="48" width="2" height="2" style="" fill="#165a3f"></rect><rect x="2" y="16" width="2" height="2" style="" fill="#165a3f"></rect><rect x="2" y="22" width="2" height="2" style="" fill="#165a3f"></rect></g><desc>Created with Snap</desc><defs></defs></g><g><g transform="matrix(0.5,0,0,-0.5,0,0)"><path d="M563 1421L600 1421Q1187 1421 1187 1067Q1187 923 1081 827Q970 727 779 719L779 715Q883 690 940 610Q970 568 1006 476Q1042 385 1063 331Q1084 278 1105 235Q1152 138 1188 138Q1203 138 1214 151Q1225 165 1236 182Q1267 225 1292 225Q1295 225 1306 219Q1317 214 1317 198Q1317 182 1310 164Q1253 73 1224 45Q1162 -16 1086 -16Q1011 -16 966 8Q922 32 892 72Q862 113 843 166Q825 219 810 277Q796 335 782 394Q768 453 747 506Q699 625 614 667Q593 678 563 690L563 772Q846 772 906 931Q926 986 926 1061Q926 1196 847 1271Q768 1346 605 1346Q576 1346 563 1343L563 1421ZM480 1421L480 238Q480 172 484 145Q488 118 502 106Q517 94 537 87Q557 81 579 76Q601 71 620 59L620 0L90 0L90 59Q105 71 126 76Q147 81 168 88Q218 103 224 144Q230 186 230 240L230 1182Q230 1293 204 1314Q183 1331 145 1340Q108 1350 90 1362L90 1421L480 1421ZM1880 80Q1962 80 2028 144L2028 29Q1938 -27 1806 -27Q1588 -27 1535 126Q1517 179 1517 254L1517 821Q1517 873 1478 894Q1461 903 1440 908Q1419 914 1400 926L1400 987L1731 987L1731 236Q1731 80 1880 80ZM2111 106L2111 821Q2111 874 2071 894Q2053 903 2031 908Q2009 914 1987 926L1987 987L2324 987L2324 164Q2324 112 2365 92Q2383 83 2404 77Q2425 71 2444 59L2444 0L2125 0L2111 106ZM3151 901Q3068 901 2999 836L2999 945Q3087 1008 3206 1008Q3344 1008 3429 936Q3516 861 3516 725L3516 199Q3516 104 3555 88Q3567 83 3581 80Q3619 70 3640 53L3640 0L3253 0L3253 68Q3253 87 3270 103Q3287 119 3295 130Q3303 142 3303 164L3303 735Q3303 901 3151 901ZM2916 987L2916 203Q2916 109 2956 90Q2968 85 2982 80Q3023 67 3042 53L3042 0L2576 0L2576 53Q2594 67 2621 76Q2649 85 2661 90Q2674 95 2683 108Q2702 134 2702 201L2702 778Q2702 877 2663 893Q2651 898 2637 902Q2593 912 2574 926L2574 987L2916 987ZM4339 901Q4256 901 4187 836L4187 945Q4275 1008 4394 1008Q4532 1008 4617 936Q4704 861 4704 725L4704 199Q4704 104 4743 88Q4755 83 4769 80Q4807 70 4828 53L4828 0L4441 0L4441 68Q4441 87 4458 103Q4475 119 4483 130Q4491 142 4491 164L4491 735Q4491 901 4339 901ZM4104 987L4104 203Q4104 109 4144 90Q4156 85 4170 80Q4211 67 4230 53L4230 0L3764 0L3764 53Q3782 67 3809 76Q3837 85 3849 90Q3862 95 3871 108Q3890 134 3890 201L3890 778Q3890 877 3851 893Q3839 898 3825 902Q3781 912 3762 926L3762 987L4104 987ZM5274 596L5601 596Q5601 884 5457 920L5457 1006Q5644 989 5745 849Q5840 718 5840 508L5274 508L5274 596ZM5461 -26L5461 61Q5635 69 5708 225Q5729 270 5744 317L5830 285Q5774 76 5601 4Q5540 -21 5461 -26ZM5190 553Q5190 123 5378 69L5378 -23Q5182 -1 5067 140Q4952 279 4952 489Q4952 710 5067 852Q5183 995 5374 1007L5374 924Q5190 902 5190 553ZM6325 987L6337 750L6337 197Q6337 107 6381 90Q6395 84 6411 80Q6464 65 6486 53L6486 0L6004 0L6004 53Q6023 65 6044 72Q6065 80 6083 90Q6124 111 6124 158L6124 737Q6124 852 6105 870Q6087 888 6069 896Q6052 904 6033 909Q6014 915 6000 926L6000 987L6325 987ZM6643 718Q6599 718 6574 739Q6549 760 6549 791Q6549 822 6575 852Q6566 858 6552 858Q6484 857 6420 762L6420 916Q6494 1008 6588 1008Q6696 1008 6733 914Q6745 885 6745 836Q6745 787 6716 752Q6687 718 6643 718ZM7315 594L7315 510Q7047 413 7047 227Q7047 152 7083 106Q7119 61 7190 61Q7262 61 7315 114L7315 19Q7238 -27 7141 -27Q7044 -27 6985 -8Q6927 11 6887 44Q6804 111 6804 221Q6804 448 7207 564Q7264 581 7315 594ZM7078 868Q7133 847 7133 772Q7133 724 7099 695Q7065 666 7007 666Q6950 666 6916 697Q6883 728 6883 777Q6883 826 6906 865Q6929 904 6971 934Q7058 997 7190 1007L7190 931Q7109 923 7078 868ZM7673 99Q7728 99 7743 199L7794 172Q7784 75 7740 24Q7697 -27 7602 -27Q7528 -27 7492 0Q7434 44 7398 133L7398 756Q7398 818 7365 863Q7333 909 7273 925L7273 1007Q7612 989 7612 649L7612 176Q7612 99 7673 99ZM8277 848L8277 949Q8363 1008 8474 1008Q8652 1008 8733 886Q8757 850 8768 809L8768 158Q8768 109 8807 88Q8825 78 8846 71Q8867 65 8887 53L8887 0L8504 0L8504 68Q8504 87 8521 103Q8538 119 8546 130Q8554 142 8554 164L8554 741Q8554 901 8414 901Q8332 901 8277 848ZM8987 901Q8911 901 8851 852L8851 950Q8941 1006 9028 1006Q9116 1006 9169 989Q9223 972 9261 937Q9342 864 9342 721L9342 158Q9342 109 9383 88Q9400 78 9421 71Q9443 65 9464 53L9464 0L9079 0L9079 68Q9079 87 9096 104Q9129 137 9129 166L9129 750Q9129 901 8987 901ZM8194 987L8194 158Q8194 111 8235 90Q8253 80 8275 72Q8298 65 8320 53L8320 0L7854 0L7854 53Q7875 65 7897 72Q7920 80 7938 90Q7980 112 7980 158L7980 778Q7980 877 7941 893Q7929 898 7915 902Q7871 912 7851 926L7851 987L8194 987ZM10083 594L10083 510Q9815 413 9815 227Q9815 152 9851 106Q9887 61 9958 61Q10030 61 10083 114L10083 19Q10006 -27 9909 -27Q9812 -27 9753 -8Q9695 11 9655 44Q9572 111 9572 221Q9572 448 9975 564Q10032 581 10083 594ZM9846 868Q9901 847 9901 772Q9901 724 9867 695Q9833 666 9775 666Q9718 666 9684 697Q9651 728 9651 777Q9651 826 9674 865Q9697 904 9739 934Q9826 997 9958 1007L9958 931Q9877 923 9846 868ZM10441 99Q10496 99 10511 199L10562 172Q10552 75 10508 24Q10465 -27 10370 -27Q10296 -27 10260 0Q10202 44 10166 133L10166 756Q10166 818 10133 863Q10101 909 10041 925L10041 1007Q10380 989 10380 649L10380 176Q10380 99 10441 99Z" style="" fill="#165a3f"></path></g></g></g></svg>